<svg xmlns="http://www.w3.org/2000/svg" version="1.1" xmlns:xlink="http://www.w3.org/1999/xlink" xmlns:svgjs="http://svgjs.dev/svgjs" width="1440" height="560" preserveAspectRatio="none" viewBox="0 0 1440 560"><g mask="url(&quot;#SvgjsMask1816&quot;)" fill="none"><rect width="1440" height="560" x="0" y="0" fill="url(&quot;#SvgjsRadialGradient1817&quot;)"></rect><path d="M1440 0L1294.73 0L1440 269.82z" fill="rgba(255, 255, 255, .1)"></path><path d="M1294.73 0L1440 269.82L1440 428.15999999999997L1294.17 0z" fill="rgba(255, 255, 255, .075)"></path><path d="M1294.17 0L1440 428.15999999999997L1440 462.84999999999997L918.9100000000001 0z" fill="rgba(255, 255, 255, .05)"></path><path d="M918.91 0L1440 462.84999999999997L1440 496.88L401.0799999999999 0z" fill="rgba(255, 255, 255, .025)"></path><path d="M0 560L473.97 560L0 510.49z" fill="rgba(0, 0, 0, .1)"></path><path d="M0 510.49L473.97 560L782.74 560L0 248.2z" fill="rgba(0, 0, 0, .075)"></path><path d="M0 248.2L782.74 560L883.38 560L0 172.51999999999998z" fill="rgba(0, 0, 0, .05)"></path><path d="M0 172.51999999999998L883.38 560L1087.04 560L0 53.79999999999998z" fill="rgba(0, 0, 0, .025)"></path></g><defs><mask id="SvgjsMask1816"><rect width="1440" height="560" fill="#ffffff"></rect></mask><radialGradient cx="50%" cy="50%" r="772.53" gradientUnits="userSpaceOnUse" id="SvgjsRadialGradient1817"><stop stop-color="rgba(115, 2, 12, 1)" offset="0.11"></stop><stop stop-color="rgba(217, 4, 4, 1)" offset="0.49"></stop></radialGradient></defs></svg>